HIERARCHY
ROOT Hips
{
	OFFSET 0.000000 35.082581 0.000000
	CHANNELS 6 Xposition Yposition Zposition Xrotation Yrotation Zrotation 
	JOINT Spine
	{
		OFFSET 0.000000 6.876099 0.125700
		CHANNELS 3 Xrotation Yrotation Zrotation
		JOINT Spine1
		{
			OFFSET 0.000000 5.730043 0.104720
			CHANNELS 3 Xrotation Yrotation Zrotation
			JOINT Spine1_split
			{
				OFFSET 0.000000 5.730043 0.104720
				CHANNELS 3 Xrotation Yrotation Zrotation
				JOINT Spine2
				{
					OFFSET 0.000000 5.730043 0.104720
					CHANNELS 3 Xrotation Yrotation Zrotation
					JOINT Neck
					{
						OFFSET 0.000000 10.314075 0.188496
						CHANNELS 3 Xrotation Yrotation Zrotation
						JOINT Head
						{
							OFFSET 0.000000 7.643700 -2.377400
							CHANNELS 3 Xrotation Yrotation Zrotation
							JOINT HeadTop_End
							{
								OFFSET 0.000000 43.788605 -13.619600
								CHANNELS 3 Xrotation Yrotation Zrotation
								End Site
								{
									OFFSET 0.000000 0.000000 0.000000
								}
							}
						}
					}
					JOINT LeftShoulder
					{
						OFFSET 2.196100 4.412489 0.087492
						CHANNELS 3 Xrotation Yrotation Zrotation
						JOINT LeftShoulder_split
						{
							OFFSET 2.196100 4.412489 0.087492
							CHANNELS 3 Xrotation Yrotation Zrotation
							JOINT LeftArm
							{
								OFFSET 8.771219 -2.981674 -0.026999
								CHANNELS 3 Xrotation Yrotation Zrotation
								JOINT LeftForeArm
								{
									OFFSET 8.512804 0.000000 -0.000000
									CHANNELS 3 Xrotation Yrotation Zrotation
									JOINT LeftHand
									{
										OFFSET 18.484802 0.000000 -0.000000
										CHANNELS 3 Xrotation Yrotation Zrotation
										JOINT LeftHandThumb1
										{
											OFFSET 2.499420 -1.158070 2.653252
											CHANNELS 3 Xrotation Yrotation Zrotation
											JOINT LeftHandThumb2
											{
												OFFSET 2.370079 -1.368366 1.368366
												CHANNELS 3 Xrotation Yrotation Zrotation
												JOINT LeftHandThumb3
												{
													OFFSET 2.676727 -1.545410 1.545409
													CHANNELS 3 Xrotation Yrotation Zrotation
													JOINT LeftHandThumb4
													{
														OFFSET 1.692226 -0.977005 0.977007
														CHANNELS 3 Xrotation Yrotation Zrotation
														End Site
														{
															OFFSET 0.000000 0.000000 0.000000
														}
													}
												}
											}
										}
										JOINT LeftHandIndex1
										{
											OFFSET 7.924831 -0.457527 2.345128
											CHANNELS 3 Xrotation Yrotation Zrotation
											JOINT LeftHandIndex2
											{
												OFFSET 3.643303 0.000000 0.000000
												CHANNELS 3 Xrotation Yrotation Zrotation
												JOINT LeftHandIndex3
												{
													OFFSET 3.810799 0.000000 0.000000
													CHANNELS 3 Xrotation Yrotation Zrotation
													JOINT LeftHandIndex4
													{
														OFFSET 2.403702 0.000000 0.000000
														CHANNELS 3 Xrotation Yrotation Zrotation
														End Site
														{
															OFFSET 0.000000 0.000000 0.000000
														}
													}
												}
											}
										}
										JOINT LeftHandMiddle1
										{
											OFFSET 8.563995 0.000000 -0.000000
											CHANNELS 3 Xrotation Yrotation Zrotation
											JOINT LeftHandMiddle2
											{
												OFFSET 3.861618 0.000000 0.000000
												CHANNELS 3 Xrotation Yrotation Zrotation
												JOINT LeftHandMiddle3
												{
													OFFSET 3.701603 0.000000 0.000000
													CHANNELS 3 Xrotation Yrotation Zrotation
													JOINT LeftHandMiddle4
													{
														OFFSET 2.322544 0.000000 0.000000
														CHANNELS 3 Xrotation Yrotation Zrotation
														End Site
														{
															OFFSET 0.000000 0.000000 0.000000
														}
													}
												}
											}
										}
										JOINT LeftHandRing1
										{
											OFFSET 8.426460 -0.424637 -3.286992
											CHANNELS 3 Xrotation Yrotation Zrotation
											JOINT LeftHandRing2
											{
												OFFSET 3.126408 0.000000 0.000000
												CHANNELS 3 Xrotation Yrotation Zrotation
												JOINT LeftHandRing3
												{
													OFFSET 3.085026 0.000000 0.000000
													CHANNELS 3 Xrotation Yrotation Zrotation
													JOINT LeftHandRing4
													{
														OFFSET 1.644005 0.000000 0.000000
														CHANNELS 3 Xrotation Yrotation Zrotation
														End Site
														{
															OFFSET 0.000000 0.000000 0.000000
														}
													}
												}
											}
										}
									}
								}
							}
						}
					}
					JOINT RightShoulder
					{
						OFFSET -2.196100 4.412496 0.070690
						CHANNELS 3 Xrotation Yrotation Zrotation
						JOINT RightShoulder_split
						{
							OFFSET -2.196100 4.412496 0.070690
							CHANNELS 3 Xrotation Yrotation Zrotation
							JOINT RightArm
							{
								OFFSET -8.771282 -2.981682 -0.094208
								CHANNELS 3 Xrotation Yrotation Zrotation
								JOINT RightForeArm
								{
									OFFSET -8.494598 0.000000 0.000000
									CHANNELS 3 Xrotation Yrotation Zrotation
									JOINT RightHand
									{
										OFFSET -18.483803 0.000000 0.000001
										CHANNELS 3 Xrotation Yrotation Zrotation
										JOINT RightHandThumb1
										{
											OFFSET -2.527351 -1.008072 2.575253
											CHANNELS 3 Xrotation Yrotation Zrotation
											JOINT RightHandThumb2
											{
												OFFSET -2.321518 -1.340328 1.340329
												CHANNELS 3 Xrotation Yrotation Zrotation
												JOINT RightHandThumb3
												{
													OFFSET -2.657753 -1.534454 1.534455
													CHANNELS 3 Xrotation Yrotation Zrotation
													JOINT RightHandThumb4
													{
														OFFSET -1.807510 -1.043568 1.043567
														CHANNELS 3 Xrotation Yrotation Zrotation
														End Site
														{
															OFFSET 0.000000 0.000000 0.000000
														}
													}
												}
											}
										}
										JOINT RightHandIndex1
										{
											OFFSET -8.811420 0.015533 2.887987
											CHANNELS 3 Xrotation Yrotation Zrotation
											JOINT RightHandIndex2
											{
												OFFSET -3.537502 0.000000 0.000000
												CHANNELS 3 Xrotation Yrotation Zrotation
												JOINT RightHandIndex3
												{
													OFFSET -3.356201 0.000000 0.000000
													CHANNELS 3 Xrotation Yrotation Zrotation
													JOINT RightHandIndex4
													{
														OFFSET -1.933098 0.000000 0.000000
														CHANNELS 3 Xrotation Yrotation Zrotation
														End Site
														{
															OFFSET 0.000000 0.000000 0.000000
														}
													}
												}
											}
										}
										JOINT RightHandMiddle1
										{
											OFFSET -8.178135 0.000000 0.000000
											CHANNELS 3 Xrotation Yrotation Zrotation
											JOINT RightHandMiddle2
											{
												OFFSET -3.901302 0.000000 0.000000
												CHANNELS 3 Xrotation Yrotation Zrotation
												JOINT RightHandMiddle3
												{
													OFFSET -3.909599 0.000000 0.000000
													CHANNELS 3 Xrotation Yrotation Zrotation
													JOINT RightHandMiddle4
													{
														OFFSET -2.376003 0.000000 0.000000
														CHANNELS 3 Xrotation Yrotation Zrotation
														End Site
														{
															OFFSET 0.000000 0.000000 0.000000
														}
													}
												}
											}
										}
										JOINT RightHandRing1
										{
											OFFSET -7.559013 0.014137 -2.865403
											CHANNELS 3 Xrotation Yrotation Zrotation
											JOINT RightHandRing2
											{
												OFFSET -3.449306 0.000000 0.000000
												CHANNELS 3 Xrotation Yrotation Zrotation
												JOINT RightHandRing3
												{
													OFFSET -3.362106 0.000000 0.000000
													CHANNELS 3 Xrotation Yrotation Zrotation
													JOINT RightHandRing4
													{
														OFFSET -2.076401 0.000000 0.000000
														CHANNELS 3 Xrotation Yrotation Zrotation
														End Site
														{
															OFFSET 0.000000 0.000000 0.000000
														}
													}
												}
											}
										}
									}
								}
							}
						}
					}
				}
			}
		}
	}
	JOINT LeftUpLeg
	{
		OFFSET 10.205400 -3.823500 0.155100
		CHANNELS 3 Xrotation Yrotation Zrotation
		JOINT LeftLeg
		{
			OFFSET 0.708757 -12.982077 0.567790
			CHANNELS 3 Xrotation Yrotation Zrotation
			JOINT LeftFoot
			{
				OFFSET -0.708756 -10.717838 -2.184338
				CHANNELS 3 Xrotation Yrotation Zrotation
				JOINT LeftToeBase
				{
					OFFSET 0.108149 -7.191104 7.560241
					CHANNELS 3 Xrotation Yrotation Zrotation
					JOINT LeftToe_End
					{
						OFFSET 0.070230 0.081724 4.490308
						CHANNELS 3 Xrotation Yrotation Zrotation
						End Site
						{
							OFFSET 0.000000 0.000000 0.000000
						}
					}
				}
			}
		}
	}
	JOINT RightUpLeg
	{
		OFFSET -10.205400 -3.823500 0.005500
		CHANNELS 3 Xrotation Yrotation Zrotation
		JOINT RightLeg
		{
			OFFSET -0.708756 -12.982134 0.610632
			CHANNELS 3 Xrotation Yrotation Zrotation
			JOINT RightFoot
			{
				OFFSET 0.708754 -10.717769 -1.945823
				CHANNELS 3 Xrotation Yrotation Zrotation
				JOINT RightToeBase
				{
					OFFSET -0.108140 -7.191069 7.372968
					CHANNELS 3 Xrotation Yrotation Zrotation
					JOINT RightToe_End
					{
						OFFSET -0.070227 0.081735 4.479403
						CHANNELS 3 Xrotation Yrotation Zrotation
						End Site
						{
							OFFSET 0.000000 0.000000 0.000000
						}
					}
				}
			}
		}
	}
}
MOTION
Frames: 4
Frame Time: 0.016667
0.568704 45.992584 7.897423 -89.646861 0.347007 0.708324 1.065471 -1.167174 0.966971 -0.317542 -2.434542 0.230483 0.000000 0.000000 0.000000 -0.303413 -2.418347 0.331942 -10.007551 0.108424 -1.808070 8.693202 -2.170252 1.510697 -0.000000 0.000000 -0.000000 0.422242 -0.102944 -3.997402 0.000000 0.000000 0.000000 35.266541 -28.376666 -54.536964 0.000027 -80.459594 0.000069 -13.956482 -3.099390 -10.083735 6.590514 -4.958678 16.122644 7.178843 21.567318 2.147325 -3.980796 36.507494 21.976038 -0.000004 0.000001 -0.000003 0.659509 4.932355 -26.024458 0.169787 1.401620 -13.813548 0.169793 1.401611 -13.813553 -0.000001 -0.000000 0.000001 1.376913 6.461947 -24.994183 0.169871 1.401976 -13.817114 0.169794 1.401621 -13.813564 0.000003 -0.000000 -0.000000 2.098706 8.644295 -21.209674 0.169785 1.401616 -13.813544 0.169797 1.401611 -13.813544 0.000001 0.000001 -0.000001 0.672260 1.791900 13.905535 0.000000 0.000000 0.000000 39.524413 30.882075 33.636346 -0.000044 101.353307 0.000000 -34.911986 -9.308825 11.148392 -13.115386 7.814921 -0.093422 7.918255 -27.751677 -3.100789 -2.785605 -37.960702 -21.297223 0.000003 0.000001 0.000003 2.082838 12.897820 37.347461 0.497039 -2.095299 26.687151 0.497050 -2.095315 26.687142 -0.000002 0.000002 0.000002 -4.321337 1.650215 38.533499 0.529974 -2.159511 27.573957 0.497634 -2.096474 26.703350 -0.000002 -0.000001 0.000002 -1.394407 -1.262386 31.742017 0.254178 -1.518984 18.997020 0.249582 -1.505616 18.823339 0.000003 0.000000 -0.000001 -12.936078 14.591880 21.691229 18.358894 5.111767 -0.857978 23.929288 31.498514 -32.007680 -4.397756 0.000006 0.000001 0.000001 0.000000 0.000000 -16.092465 -13.414408 -16.374187 25.213657 -4.778938 -7.396682 31.716817 -31.981948 35.500970 -9.125685 0.000071 -0.000017 -0.000001 0.000002 -0.000000 
0.566130 45.988537 7.894238 -89.646206 0.346028 0.710812 1.065968 -1.299703 0.964818 -0.267808 -2.803663 0.269861 0.000000 0.000000 0.000000 -0.275041 -2.540291 0.378853 -10.308413 0.108420 -1.848248 8.590553 -2.164039 1.438076 -0.000000 -0.000000 -0.000000 0.286860 1.338423 -4.209000 0.000000 0.000000 0.000000 35.597399 -28.973939 -53.870692 0.000015 -80.449895 0.000068 -14.006706 -2.990139 -10.115701 6.590516 -4.958683 16.122638 7.178848 21.567320 2.147321 -3.980790 36.507491 21.976036 -0.000004 0.000001 0.000002 0.659508 4.932351 -26.024457 0.169782 1.401625 -13.813547 0.169795 1.401612 -13.813550 -0.000000 0.000001 -0.000001 1.376913 6.461948 -24.994176 0.169874 1.401976 -13.817116 0.169789 1.401627 -13.813562 -0.000001 -0.000000 -0.000000 2.098702 8.644297 -21.209677 0.169788 1.401614 -13.813545 0.169791 1.401607 -13.813546 0.000000 -0.000001 0.000002 0.632468 1.910003 13.900057 0.000000 0.000000 0.000000 39.216815 31.338462 32.961619 -0.000019 101.514008 -0.000025 -32.241539 -5.778573 11.438740 -12.649677 7.487831 0.310930 7.918260 -27.751665 -3.100791 -2.801559 -37.397594 -21.178642 0.000000 -0.000000 -0.000000 1.826890 12.388924 38.175659 0.531852 -2.163139 27.624073 0.490668 -2.082537 26.511753 0.000000 -0.000001 0.000003 -4.275623 1.292278 39.774616 0.580798 -2.254092 28.893759 0.545535 -2.189056 27.984583 -0.000000 -0.000001 0.000002 -1.400938 -1.500332 33.624325 0.307070 -1.664657 20.900900 0.301732 -1.650643 20.716681 -0.000001 -0.000002 0.000002 -12.923167 14.564885 21.723779 18.473456 5.115866 -0.906601 23.902826 31.505866 -31.973277 -4.437355 0.000012 -0.000014 0.000000 -0.000001 0.000000 -16.097738 -13.418939 -16.360453 25.189726 -4.797699 -7.413967 31.704010 -31.982542 35.480169 -9.100483 0.000047 0.000025 -0.000001 -0.000004 0.000001 
0.564416 45.988251 7.892979 -89.645386 0.345130 0.712773 1.072339 -1.484192 0.964820 -0.122007 -3.167863 0.318246 0.000000 0.000000 0.000000 -0.192743 -2.885992 0.467762 -10.438611 0.101446 -1.869202 8.494244 -2.149575 1.244426 0.000000 0.000001 -0.000000 0.143289 2.780177 -4.408347 0.000000 0.000000 0.000000 35.798049 -29.342124 -53.528012 0.000017 -80.441160 0.000020 -13.903222 -3.035554 -10.126502 6.590514 -4.958678 16.122639 7.178845 21.567320 2.147327 -3.980795 36.507498 21.976036 -0.000005 0.000003 0.000002 0.659510 4.932352 -26.024450 0.169789 1.401619 -13.813546 0.169796 1.401612 -13.813551 0.000001 -0.000000 -0.000001 1.376913 6.461947 -24.994177 0.169876 1.401978 -13.817114 0.169794 1.401623 -13.813562 0.000002 0.000000 0.000001 2.098705 8.644301 -21.209675 0.169789 1.401611 -13.813543 0.169794 1.401607 -13.813545 0.000002 0.000002 0.000002 0.595528 2.019714 13.895000 0.000000 0.000000 0.000000 37.989420 32.092289 32.256323 -0.000058 101.960060 0.000038 -30.034261 -3.162346 11.679215 -12.147817 7.137446 0.751212 7.918259 -27.751673 -3.100790 -2.820186 -36.790507 -21.051493 -0.000002 -0.000002 -0.000002 1.567000 11.835576 39.062204 0.570612 -2.235584 28.634274 0.483811 -2.068773 26.322654 -0.000000 -0.000000 -0.000000 -4.213799 0.910817 41.113480 0.638011 -2.354724 30.316758 0.599499 -2.287641 29.366057 0.000000 0.000001 -0.000000 -1.397921 -1.756074 35.653987 0.369480 -1.819643 22.953759 0.363292 -1.804966 22.758219 -0.000002 -0.000000 -0.000002 -12.912111 14.565611 21.723509 18.491851 5.123775 -0.944004 23.943066 31.505525 -31.956823 -4.495529 -0.000017 0.000029 -0.000000 -0.000002 0.000001 -16.091685 -13.423981 -16.330262 25.227760 -4.801498 -7.456823 31.590742 -32.027119 35.456116 -9.020544 0.000057 0.000005 0.000001 -0.000002 0.000000 
0.561251 45.985889 7.892292 -89.640475 0.327079 0.718021 1.020044 -1.604429 0.962356 -0.004329 -3.399446 0.363598 0.000000 0.000000 0.000000 -0.116508 -3.107313 0.517953 -10.409517 0.091391 -1.902495 8.391084 -2.126790 0.943353 -0.000000 -0.000001 -0.000000 -0.087605 3.411961 -4.598650 0.000000 0.000000 0.000000 36.070226 -29.254718 -53.441640 -0.000001 -80.534105 0.000037 -13.803845 -3.053165 -10.111789 6.590514 -4.958679 16.122643 7.178846 21.567320 2.147325 -3.980793 36.507494 21.976040 -0.000000 0.000003 -0.000003 0.659513 4.932349 -26.024452 0.169789 1.401621 -13.813548 0.169792 1.401615 -13.813553 0.000001 -0.000000 -0.000001 1.376911 6.461945 -24.994177 0.169869 1.401974 -13.817112 0.169791 1.401626 -13.813561 0.000002 0.000001 0.000002 2.098707 8.644295 -21.209674 0.169785 1.401615 -13.813544 0.169789 1.401608 -13.813544 0.000000 0.000001 -0.000000 0.552926 2.146242 13.889239 0.000000 0.000000 0.000000 36.351278 32.916239 31.673073 -0.000031 102.444614 -0.000008 -28.112842 -0.954755 11.594360 -11.615842 6.768537 1.222992 7.918257 -27.751677 -3.100793 -2.841633 -36.146830 -20.917497 0.000005 0.000001 0.000002 1.309540 11.243925 39.995296 0.613122 -2.311673 29.705541 0.476601 -2.054132 26.122159 0.000000 -0.000000 -0.000002 -4.134210 0.511812 42.534248 0.701399 -2.459825 31.825902 0.659297 -2.390731 30.831105 -0.000000 -0.000001 0.000001 -1.383353 -2.025840 37.806675 0.441705 -1.981430 25.130923 0.434539 -1.966115 24.923348 0.000001 -0.000001 0.000003 -12.894786 14.565547 21.731528 18.518979 5.155522 -0.989683 23.970472 31.507120 -31.943982 -4.542687 0.000012 0.000014 0.000000 -0.000000 0.000000 -16.094654 -13.429234 -16.281578 25.286586 -4.807356 -7.521440 31.404834 -32.091459 35.414012 -8.894025 0.000048 0.000003 0.000000 -0.000003 0.000001 
